<?xml version="1.0" encoding="UTF-8" standalone="no"?>
<!DOCTYPE svg PUBLIC "-//W3C//DTD SVG 1.1//EN" "http://www.w3.org/Graphics/SVG/1.1/DTD/svg11.dtd">
<svg xmlns="http://www.w3.org/2000/svg" version="1.1" viewBox="0 0 1430 1211">
<g stroke-width="2.00" fill="none" stroke-linecap="butt">
<path stroke="#b7391a" vector-effect="non-scaling-stroke" d="
  M 280.46 496.00
  C 279.25 495.49 279.39 496.56 279.52 497.32
  Q 281.10 506.57 286.82 512.62
  C 288.07 513.95 290.41 513.50 291.34 514.81
  Q 291.59 515.18 292.02 515.31
  Q 294.78 516.22 295.49 518.92
  Q 295.62 519.44 296.00 519.83
  Q 298.60 522.52 299.80 522.94
  Q 311.81 527.14 321.69 524.92
  Q 333.54 522.24 349.46 513.98
  Q 390.62 492.61 431.65 471.00
  C 442.22 465.44 452.83 459.92 463.37 454.25
  C 469.45 450.97 475.72 446.68 477.41 439.99
  Q 479.43 432.01 472.57 428.43"
/>
<path stroke="#e8a08f" vector-effect="non-scaling-stroke" d="
  M 472.57 428.43
  Q 468.53 424.17 462.25 424.71"
/>
<path stroke="#b7391a" vector-effect="non-scaling-stroke" d="
  M 462.25 424.71
  Q 462.57 423.82 462.50 422.89
  Q 462.47 422.40 462.04 422.16
  C 456.43 419.06 461.50 413.97 465.26 412.03
  C 486.95 400.87 510.30 392.13 532.89 382.93
  Q 533.69 382.61 535.39 381.57
  C 537.41 380.35 540.72 379.75 542.06 379.21
  C 587.90 360.63 633.90 343.57 678.42 329.87
  C 701.91 322.64 725.84 316.66 747.24 313.46
  Q 761.25 311.37 775.26 313.46
  C 777.24 313.76 789.79 318.11 792.45 320.78
  Q 798.50 326.84 802.77 335.12"
/>
<path stroke="#e8a08f" vector-effect="non-scaling-stroke" d="
  M 802.77 335.12
  C 801.03 345.60 794.41 356.57 788.42 365.95
  Q 768.88 396.57 746.22 424.96
  C 695.54 488.46 641.09 549.15 585.85 608.70
  Q 585.51 609.06 585.03 609.18
  Q 520.32 625.35 455.59 641.43
  Q 454.28 641.76 453.55 641.46
  C 442.15 636.73 431.02 633.81 419.14 639.22
  C 392.55 651.35 368.84 694.16 375.21 723.00"
/>
<path stroke="#b7391a" vector-effect="non-scaling-stroke" d="
  M 375.21 723.00
  Q 374.55 730.86 379.70 738.29
  Q 385.26 746.33 392.82 750.35
  C 395.16 751.59 397.51 753.70 399.30 754.50
  Q 417.65 762.70 439.41 762.75
  C 444.01 762.76 450.94 762.98 452.54 768.25"
/>
<path stroke="#e8a08f" vector-effect="non-scaling-stroke" d="
  M 452.54 768.25
  Q 433.38 795.71 414.14 823.12
  C 406.08 834.59 395.47 848.57 392.79 862.50"
/>
<path stroke="#b7391a" vector-effect="non-scaling-stroke" d="
  M 392.79 862.50
  L 392.32 866.87
  Q 392.28 867.30 391.92 867.05
  Q 391.77 866.94 391.75 866.74
  Q 391.53 864.15 390.86 866.78
  Q 386.18 884.97 395.50 900.81
  Q 395.77 901.27 395.67 901.80
  C 394.90 906.04 398.17 908.64 400.89 911.10
  C 403.42 913.39 406.72 914.06 409.99 915.09
  Q 410.38 915.21 410.11 914.90
  Q 407.78 912.21 404.12 912.32
  Q 403.58 912.34 403.12 912.05
  Q 398.74 909.29 396.46 904.61
  Q 396.20 904.07 396.53 903.58
  L 397.78 901.74
  Q 398.19 901.13 398.05 901.86
  C 396.43 910.35 405.19 910.01 409.85 913.71
  Q 411.02 914.64 412.29 915.43
  C 415.54 917.45 419.22 922.00 422.59 922.73
  C 447.94 928.26 461.70 905.83 473.39 888.01
  C 474.17 886.82 475.55 885.85 476.24 884.36
  Q 477.53 881.56 477.68 881.33
  Q 487.24 866.47 497.03 851.75
  C 497.84 850.53 499.27 849.31 500.18 847.95
  Q 510.71 832.03 521.54 816.30
  Q 521.75 816.00 521.78 815.67
  Q 521.83 815.17 522.12 814.76
  Q 539.63 789.61 557.77 764.92
  Q 557.81 764.86 557.74 764.83
  Q 557.62 764.79 557.50 764.76
  Q 557.40 764.74 557.46 764.66
  C 563.59 755.72 570.24 747.93 581.51 746.01
  Q 617.94 739.79 666.43 733.62
  Q 666.91 733.56 667.21 733.18
  Q 667.64 732.64 668.75 732.50
  Q 687.85 730.05 706.97 727.75
  Q 717.73 726.46 723.70 727.33
  Q 726.58 727.76 729.79 731.50"
/>
<path stroke="#e8a08f" vector-effect="non-scaling-stroke" d="
  M 729.79 731.50
  Q 709.36 769.63 697.31 802.06
  C 689.94 821.89 670.27 884.18 692.00 898.96"
/>
<path stroke="#b7391a" vector-effect="non-scaling-stroke" d="
  M 692.00 898.96
  L 691.02 898.94
  Q 690.57 898.92 690.36 899.32
  C 689.60 900.75 693.33 902.18 694.60 902.65
  Q 695.06 902.82 695.38 903.19
  Q 697.43 905.60 699.45 908.07
  C 702.32 911.58 701.06 914.44 707.02 915.07
  C 718.46 916.29 730.73 912.09 741.97 907.29
  Q 760.27 899.48 776.32 887.86
  C 788.16 879.28 797.45 868.31 795.45 852.59
  C 793.81 839.70 787.75 828.66 789.06 815.25
  Q 790.06 805.07 793.19 796.18
  C 800.50 775.43 811.31 754.46 821.44 734.01
  C 822.10 732.68 821.95 730.73 823.88 729.49
  Q 824.30 729.22 824.52 728.77
  C 829.96 717.69 842.97 719.26 853.44 719.54
  Q 881.74 720.31 909.94 722.66
  Q 913.90 722.99 921.29 721.82
  Q 921.44 721.80 921.48 721.94
  Q 921.52 722.06 921.56 722.19
  Q 921.63 722.39 921.84 722.32
  Q 932.23 718.58 939.22 709.22
  Q 955.95 686.79 972.44 664.20
  Q 972.92 663.55 973.91 661.73
  C 975.03 659.68 977.51 657.45 978.43 656.20
  Q 987.28 644.12 996.25 632.13
  C 997.15 630.93 997.78 628.98 999.28 627.78
  Q 999.65 627.47 999.85 627.03
  C 1000.82 624.83 1002.84 623.24 1003.96 621.65
  Q 1005.90 618.89 1007.95 616.21
  C 1015.05 606.96 1022.54 593.47 1010.06 584.96
  Q 1009.65 584.68 1009.22 584.94
  L 1008.29 585.50"
/>
<path stroke="#e8a08f" vector-effect="non-scaling-stroke" d="
  M 1008.29 585.50
  L 1007.75 584.96"
/>
<path stroke="#b7391a" vector-effect="non-scaling-stroke" d="
  M 1007.75 584.96
  C 1010.84 579.35 946.67 572.50 941.61 572.01
  C 935.32 571.40 930.90 571.62 925.18 568.25
  Q 924.76 568.01 924.56 567.57
  Q 922.37 562.82 924.76 559.02
  C 949.76 519.41 983.93 471.54 1014.19 428.43
  C 1014.86 427.48 1015.00 426.39 1015.93 425.33
  Q 1017.43 423.63 1017.46 423.59
  Q 1031.16 404.33 1043.89 384.42
  Q 1044.48 383.50 1045.82 380.87
  C 1047.14 378.28 1049.68 375.33 1050.72 373.79
  Q 1055.61 366.59 1060.39 359.33
  C 1061.08 358.27 1061.42 356.86 1062.32 355.70
  C 1076.82 337.04 1083.98 301.88 1077.55 280.72
  Q 1073.84 268.48 1061.31 268.29"
/>
<path stroke="#e8a08f" vector-effect="non-scaling-stroke" d="
  M 1061.31 268.29
  Q 1058.84 265.95 1055.55 265.68
  C 1048.20 265.07 1038.75 276.96 1034.60 282.24
  C 997.18 329.68 961.75 378.75 926.73 427.97
  Q 876.09 499.13 826.52 571.05
  Q 826.24 571.46 825.75 571.52
  C 789.16 575.72 752.44 579.00 716.00 583.96"
/>
<path stroke="#b7391a" vector-effect="non-scaling-stroke" d="
  M 716.00 583.96
  L 714.35 581.26
  Q 714.09 580.83 714.06 580.32
  C 713.82 575.52 718.01 570.82 721.02 567.45
  C 740.72 545.34 759.68 522.51 779.57 500.58
  Q 780.51 499.54 780.81 498.19
  Q 780.91 497.72 781.23 497.36
  C 803.44 472.04 824.85 446.23 843.66 418.26
  C 854.66 401.92 865.66 384.25 873.85 366.33
  C 874.15 365.67 873.93 364.92 874.34 364.05
  Q 878.13 355.98 880.01 348.50
  Q 880.11 348.11 880.33 347.91
  Q 880.59 347.68 880.69 347.34
  C 889.48 319.41 888.93 288.74 882.29 260.49
  Q 881.55 257.32 877.32 247.26
  Q 874.92 241.55 872.01 237.97
  C 865.46 229.92 853.45 221.14 842.61 220.07
  Q 842.25 220.03 842.25 220.39
  Q 842.24 220.76 842.00 221.04"
/>
<path stroke="#e8a08f" vector-effect="non-scaling-stroke" d="
  M 842.00 221.04
  C 826.97 215.08 810.59 212.82 794.50 212.56
  C 748.72 211.82 702.74 217.57 658.05 227.28
  C 579.09 244.43 502.38 270.23 428.42 302.64
  Q 382.75 322.65 340.06 348.37
  Q 322.58 358.90 315.07 365.82
  C 295.28 384.02 285.38 416.59 279.73 444.35
  C 276.37 460.82 274.79 479.63 280.46 496.00"
/>
<path stroke="#ce988b" vector-effect="non-scaling-stroke" d="
  M 842.00 221.04
  C 857.67 226.71 865.96 239.65 869.34 255.37
  Q 873.92 276.68 873.95 298.46
  C 873.97 322.61 867.09 345.63 855.57 367.08
  C 835.99 403.55 812.47 436.22 786.68 466.18
  Q 733.73 527.68 679.93 588.51
  A 0.37 0.36 16.4 0 0 680.26 589.11
  L 716.00 583.96"
/>
<path stroke="#ce988b" vector-effect="non-scaling-stroke" d="
  M 1061.31 268.29
  Q 1064.79 276.67 1064.69 285.52
  C 1064.47 306.36 1062.29 323.49 1050.54 341.81
  C 1045.83 349.16 1040.48 356.56 1036.03 363.57
  C 1011.94 401.51 985.54 437.98 959.83 474.83
  Q 927.06 521.77 896.57 569.71
  Q 896.11 570.44 896.97 570.48
  Q 953.24 573.04 1007.75 584.96"
/>
<path stroke="#ce988b" vector-effect="non-scaling-stroke" d="
  M 1008.29 585.50
  L 917.15 708.90
  Q 916.83 709.33 916.30 709.27
  Q 866.82 703.79 817.04 704.61
  Q 816.51 704.61 816.27 705.08
  C 799.01 738.73 787.91 761.27 778.73 784.95
  Q 773.89 797.43 772.91 810.72
  C 772.16 820.89 775.56 829.69 779.10 839.93
  Q 781.95 848.20 782.00 848.45
  C 783.66 856.96 776.31 865.45 769.75 870.51
  Q 743.56 890.71 711.65 899.55
  C 705.45 901.27 698.15 902.07 692.00 898.96"
/>
<path stroke="#ce988b" vector-effect="non-scaling-stroke" d="
  M 729.79 731.50
  L 742.05 709.12
  Q 742.33 708.61 741.75 708.65
  Q 722.80 709.99 703.92 712.05
  Q 630.88 720.03 558.47 732.35
  Q 557.97 732.44 557.67 732.84
  Q 505.47 801.92 458.88 874.90
  Q 450.76 887.61 441.38 899.37
  C 427.18 917.15 403.63 905.56 395.39 888.88
  C 391.88 881.79 392.46 870.25 392.79 862.50"
/>
<path stroke="#ce988b" vector-effect="non-scaling-stroke" d="
  M 452.54 768.25
  L 466.89 747.17
  Q 467.22 746.69 466.64 746.74
  C 438.33 748.85 391.47 752.63 375.21 723.00"
/>
<path stroke="#ce988b" vector-effect="non-scaling-stroke" d="
  M 802.77 335.12
  Q 804.78 316.86 789.96 307.07
  C 767.81 292.44 737.68 298.41 713.67 304.10
  C 673.39 313.64 633.62 326.71 594.89 341.25
  Q 531.23 365.16 468.74 391.97
  Q 456.09 397.39 441.80 405.04
  Q 437.04 407.59 433.66 411.25
  Q 433.28 411.66 433.33 412.22
  Q 434.02 420.05 442.08 421.61
  Q 454.37 423.99 462.25 424.71"
/>
<path stroke="#ce988b" vector-effect="non-scaling-stroke" d="
  M 472.57 428.43
  C 469.52 432.71 463.96 435.25 459.42 437.65
  Q 404.03 466.80 348.58 495.84
  Q 333.69 503.64 321.60 508.54
  Q 313.26 511.92 308.10 512.32
  C 296.21 513.23 285.04 507.51 280.46 496.00"
/>
</g>
<path fill="#d1411e" d="
  M 1382.98 596.53
  A 671.45 562.44 0.0 0 1 711.53 1158.97
  A 671.45 562.44 0.0 0 1 40.08 596.53
  A 671.45 562.44 0.0 0 1 711.53 34.09
  A 671.45 562.44 0.0 0 1 1382.98 596.53
  Z
  M 280.46 496.00
  C 279.25 495.49 279.39 496.56 279.52 497.32
  Q 281.10 506.57 286.82 512.62
  C 288.07 513.95 290.41 513.50 291.34 514.81
  Q 291.59 515.18 292.02 515.31
  Q 294.78 516.22 295.49 518.92
  Q 295.62 519.44 296.00 519.83
  Q 298.60 522.52 299.80 522.94
  Q 311.81 527.14 321.69 524.92
  Q 333.54 522.24 349.46 513.98
  Q 390.62 492.61 431.65 471.00
  C 442.22 465.44 452.83 459.92 463.37 454.25
  C 469.45 450.97 475.72 446.68 477.41 439.99
  Q 479.43 432.01 472.57 428.43
  Q 468.53 424.17 462.25 424.71
  Q 462.57 423.82 462.50 422.89
  Q 462.47 422.40 462.04 422.16
  C 456.43 419.06 461.50 413.97 465.26 412.03
  C 486.95 400.87 510.30 392.13 532.89 382.93
  Q 533.69 382.61 535.39 381.57
  C 537.41 380.35 540.72 379.75 542.06 379.21
  C 587.90 360.63 633.90 343.57 678.42 329.87
  C 701.91 322.64 725.84 316.66 747.24 313.46
  Q 761.25 311.37 775.26 313.46
  C 777.24 313.76 789.79 318.11 792.45 320.78
  Q 798.50 326.84 802.77 335.12
  C 801.03 345.60 794.41 356.57 788.42 365.95
  Q 768.88 396.57 746.22 424.96
  C 695.54 488.46 641.09 549.15 585.85 608.70
  Q 585.51 609.06 585.03 609.18
  Q 520.32 625.35 455.59 641.43
  Q 454.28 641.76 453.55 641.46
  C 442.15 636.73 431.02 633.81 419.14 639.22
  C 392.55 651.35 368.84 694.16 375.21 723.00
  Q 374.55 730.86 379.70 738.29
  Q 385.26 746.33 392.82 750.35
  C 395.16 751.59 397.51 753.70 399.30 754.50
  Q 417.65 762.70 439.41 762.75
  C 444.01 762.76 450.94 762.98 452.54 768.25
  Q 433.38 795.71 414.14 823.12
  C 406.08 834.59 395.47 848.57 392.79 862.50
  L 392.32 866.87
  Q 392.28 867.30 391.92 867.05
  Q 391.77 866.94 391.75 866.74
  Q 391.53 864.15 390.86 866.78
  Q 386.18 884.97 395.50 900.81
  Q 395.77 901.27 395.67 901.80
  C 394.90 906.04 398.17 908.64 400.89 911.10
  C 403.42 913.39 406.72 914.06 409.99 915.09
  Q 410.38 915.21 410.11 914.90
  Q 407.78 912.21 404.12 912.32
  Q 403.58 912.34 403.12 912.05
  Q 398.74 909.29 396.46 904.61
  Q 396.20 904.07 396.53 903.58
  L 397.78 901.74
  Q 398.19 901.13 398.05 901.86
  C 396.43 910.35 405.19 910.01 409.85 913.71
  Q 411.02 914.64 412.29 915.43
  C 415.54 917.45 419.22 922.00 422.59 922.73
  C 447.94 928.26 461.70 905.83 473.39 888.01
  C 474.17 886.82 475.55 885.85 476.24 884.36
  Q 477.53 881.56 477.68 881.33
  Q 487.24 866.47 497.03 851.75
  C 497.84 850.53 499.27 849.31 500.18 847.95
  Q 510.71 832.03 521.54 816.30
  Q 521.75 816.00 521.78 815.67
  Q 521.83 815.17 522.12 814.76
  Q 539.63 789.61 557.77 764.92
  Q 557.81 764.86 557.74 764.83
  Q 557.62 764.79 557.50 764.76
  Q 557.40 764.74 557.46 764.66
  C 563.59 755.72 570.24 747.93 581.51 746.01
  Q 617.94 739.79 666.43 733.62
  Q 666.91 733.56 667.21 733.18
  Q 667.64 732.64 668.75 732.50
  Q 687.85 730.05 706.97 727.75
  Q 717.73 726.46 723.70 727.33
  Q 726.58 727.76 729.79 731.50
  Q 709.36 769.63 697.31 802.06
  C 689.94 821.89 670.27 884.18 692.00 898.96
  L 691.02 898.94
  Q 690.57 898.92 690.36 899.32
  C 689.60 900.75 693.33 902.18 694.60 902.65
  Q 695.06 902.82 695.38 903.19
  Q 697.43 905.60 699.45 908.07
  C 702.32 911.58 701.06 914.44 707.02 915.07
  C 718.46 916.29 730.73 912.09 741.97 907.29
  Q 760.27 899.48 776.32 887.86
  C 788.16 879.28 797.45 868.31 795.45 852.59
  C 793.81 839.70 787.75 828.66 789.06 815.25
  Q 790.06 805.07 793.19 796.18
  C 800.50 775.43 811.31 754.46 821.44 734.01
  C 822.10 732.68 821.95 730.73 823.88 729.49
  Q 824.30 729.22 824.52 728.77
  C 829.96 717.69 842.97 719.26 853.44 719.54
  Q 881.74 720.31 909.94 722.66
  Q 913.90 722.99 921.29 721.82
  Q 921.44 721.80 921.48 721.94
  Q 921.52 722.06 921.56 722.19
  Q 921.63 722.39 921.84 722.32
  Q 932.23 718.58 939.22 709.22
  Q 955.95 686.79 972.44 664.20
  Q 972.92 663.55 973.91 661.73
  C 975.03 659.68 977.51 657.45 978.43 656.20
  Q 987.28 644.12 996.25 632.13
  C 997.15 630.93 997.78 628.98 999.28 627.78
  Q 999.65 627.47 999.85 627.03
  C 1000.82 624.83 1002.84 623.24 1003.96 621.65
  Q 1005.90 618.89 1007.95 616.21
  C 1015.05 606.96 1022.54 593.47 1010.06 584.96
  Q 1009.65 584.68 1009.22 584.94
  L 1008.29 585.50
  L 1007.75 584.96
  C 1010.84 579.35 946.67 572.50 941.61 572.01
  C 935.32 571.40 930.90 571.62 925.18 568.25
  Q 924.76 568.01 924.56 567.57
  Q 922.37 562.82 924.76 559.02
  C 949.76 519.41 983.93 471.54 1014.19 428.43
  C 1014.86 427.48 1015.00 426.39 1015.93 425.33
  Q 1017.43 423.63 1017.46 423.59
  Q 1031.16 404.33 1043.89 384.42
  Q 1044.48 383.50 1045.82 380.87
  C 1047.14 378.28 1049.68 375.33 1050.72 373.79
  Q 1055.61 366.59 1060.39 359.33
  C 1061.08 358.27 1061.42 356.86 1062.32 355.70
  C 1076.82 337.04 1083.98 301.88 1077.55 280.72
  Q 1073.84 268.48 1061.31 268.29
  Q 1058.84 265.95 1055.55 265.68
  C 1048.20 265.07 1038.75 276.96 1034.60 282.24
  C 997.18 329.68 961.75 378.75 926.73 427.97
  Q 876.09 499.13 826.52 571.05
  Q 826.24 571.46 825.75 571.52
  C 789.16 575.72 752.44 579.00 716.00 583.96
  L 714.35 581.26
  Q 714.09 580.83 714.06 580.32
  C 713.82 575.52 718.01 570.82 721.02 567.45
  C 740.72 545.34 759.68 522.51 779.57 500.58
  Q 780.51 499.54 780.81 498.19
  Q 780.91 497.72 781.23 497.36
  C 803.44 472.04 824.85 446.23 843.66 418.26
  C 854.66 401.92 865.66 384.25 873.85 366.33
  C 874.15 365.67 873.93 364.92 874.34 364.05
  Q 878.13 355.98 880.01 348.50
  Q 880.11 348.11 880.33 347.91
  Q 880.59 347.68 880.69 347.34
  C 889.48 319.41 888.93 288.74 882.29 260.49
  Q 881.55 257.32 877.32 247.26
  Q 874.92 241.55 872.01 237.97
  C 865.46 229.92 853.45 221.14 842.61 220.07
  Q 842.25 220.03 842.25 220.39
  Q 842.24 220.76 842.00 221.04
  C 826.97 215.08 810.59 212.82 794.50 212.56
  C 748.72 211.82 702.74 217.57 658.05 227.28
  C 579.09 244.43 502.38 270.23 428.42 302.64
  Q 382.75 322.65 340.06 348.37
  Q 322.58 358.90 315.07 365.82
  C 295.28 384.02 285.38 416.59 279.73 444.35
  C 276.37 460.82 274.79 479.63 280.46 496.00
  Z"
/>
<path fill="#ffffff" d="
  M 842.00 221.04
  C 857.67 226.71 865.96 239.65 869.34 255.37
  Q 873.92 276.68 873.95 298.46
  C 873.97 322.61 867.09 345.63 855.57 367.08
  C 835.99 403.55 812.47 436.22 786.68 466.18
  Q 733.73 527.68 679.93 588.51
  A 0.37 0.36 16.4 0 0 680.26 589.11
  L 716.00 583.96
  C 752.44 579.00 789.16 575.72 825.75 571.52
  Q 826.24 571.46 826.52 571.05
  Q 876.09 499.13 926.73 427.97
  C 961.75 378.75 997.18 329.68 1034.60 282.24
  C 1038.75 276.96 1048.20 265.07 1055.55 265.68
  Q 1058.84 265.95 1061.31 268.29
  Q 1064.79 276.67 1064.69 285.52
  C 1064.47 306.36 1062.29 323.49 1050.54 341.81
  C 1045.83 349.16 1040.48 356.56 1036.03 363.57
  C 1011.94 401.51 985.54 437.98 959.83 474.83
  Q 927.06 521.77 896.57 569.71
  Q 896.11 570.44 896.97 570.48
  Q 953.24 573.04 1007.75 584.96
  L 1008.29 585.50
  L 917.15 708.90
  Q 916.83 709.33 916.30 709.27
  Q 866.82 703.79 817.04 704.61
  Q 816.51 704.61 816.27 705.08
  C 799.01 738.73 787.91 761.27 778.73 784.95
  Q 773.89 797.43 772.91 810.72
  C 772.16 820.89 775.56 829.69 779.10 839.93
  Q 781.95 848.20 782.00 848.45
  C 783.66 856.96 776.31 865.45 769.75 870.51
  Q 743.56 890.71 711.65 899.55
  C 705.45 901.27 698.15 902.07 692.00 898.96
  C 670.27 884.18 689.94 821.89 697.31 802.06
  Q 709.36 769.63 729.79 731.50
  L 742.05 709.12
  Q 742.33 708.61 741.75 708.65
  Q 722.80 709.99 703.92 712.05
  Q 630.88 720.03 558.47 732.35
  Q 557.97 732.44 557.67 732.84
  Q 505.47 801.92 458.88 874.90
  Q 450.76 887.61 441.38 899.37
  C 427.18 917.15 403.63 905.56 395.39 888.88
  C 391.88 881.79 392.46 870.25 392.79 862.50
  C 395.47 848.57 406.08 834.59 414.14 823.12
  Q 433.38 795.71 452.54 768.25
  L 466.89 747.17
  Q 467.22 746.69 466.64 746.74
  C 438.33 748.85 391.47 752.63 375.21 723.00
  C 368.84 694.16 392.55 651.35 419.14 639.22
  C 431.02 633.81 442.15 636.73 453.55 641.46
  Q 454.28 641.76 455.59 641.43
  Q 520.32 625.35 585.03 609.18
  Q 585.51 609.06 585.85 608.70
  C 641.09 549.15 695.54 488.46 746.22 424.96
  Q 768.88 396.57 788.42 365.95
  C 794.41 356.57 801.03 345.60 802.77 335.12
  Q 804.78 316.86 789.96 307.07
  C 767.81 292.44 737.68 298.41 713.67 304.10
  C 673.39 313.64 633.62 326.71 594.89 341.25
  Q 531.23 365.16 468.74 391.97
  Q 456.09 397.39 441.80 405.04
  Q 437.04 407.59 433.66 411.25
  Q 433.28 411.66 433.33 412.22
  Q 434.02 420.05 442.08 421.61
  Q 454.37 423.99 462.25 424.71
  Q 468.53 424.17 472.57 428.43
  C 469.52 432.71 463.96 435.25 459.42 437.65
  Q 404.03 466.80 348.58 495.84
  Q 333.69 503.64 321.60 508.54
  Q 313.26 511.92 308.10 512.32
  C 296.21 513.23 285.04 507.51 280.46 496.00
  C 274.79 479.63 276.37 460.82 279.73 444.35
  C 285.38 416.59 295.28 384.02 315.07 365.82
  Q 322.58 358.90 340.06 348.37
  Q 382.75 322.65 428.42 302.64
  C 502.38 270.23 579.09 244.43 658.05 227.28
  C 702.74 217.57 748.72 211.82 794.50 212.56
  C 810.59 212.82 826.97 215.08 842.00 221.04
  Z"
/>
<path fill="#9c3016" d="
  M 716.00 583.96
  L 680.26 589.11
  A 0.37 0.36 16.4 0 1 679.93 588.51
  Q 733.73 527.68 786.68 466.18
  C 812.47 436.22 835.99 403.55 855.57 367.08
  C 867.09 345.63 873.97 322.61 873.95 298.46
  Q 873.92 276.68 869.34 255.37
  C 865.96 239.65 857.67 226.71 842.00 221.04
  Q 842.24 220.76 842.25 220.39
  Q 842.25 220.03 842.61 220.07
  C 853.45 221.14 865.46 229.92 872.01 237.97
  Q 874.92 241.55 877.32 247.26
  Q 881.55 257.32 882.29 260.49
  C 888.93 288.74 889.48 319.41 880.69 347.34
  Q 880.59 347.68 880.33 347.91
  Q 880.11 348.11 880.01 348.50
  Q 878.13 355.98 874.34 364.05
  C 873.93 364.92 874.15 365.67 873.85 366.33
  C 865.66 384.25 854.66 401.92 843.66 418.26
  C 824.85 446.23 803.44 472.04 781.23 497.36
  Q 780.91 497.72 780.81 498.19
  Q 780.51 499.54 779.57 500.58
  C 759.68 522.51 740.72 545.34 721.02 567.45
  C 718.01 570.82 713.82 575.52 714.06 580.32
  Q 714.09 580.83 714.35 581.26
  L 716.00 583.96
  Z"
/>
<path fill="#9c3016" d="
  M 1007.75 584.96
  Q 953.24 573.04 896.97 570.48
  Q 896.11 570.44 896.57 569.71
  Q 927.06 521.77 959.83 474.83
  C 985.54 437.98 1011.94 401.51 1036.03 363.57
  C 1040.48 356.56 1045.83 349.16 1050.54 341.81
  C 1062.29 323.49 1064.47 306.36 1064.69 285.52
  Q 1064.79 276.67 1061.31 268.29
  Q 1073.84 268.48 1077.55 280.72
  C 1083.98 301.88 1076.82 337.04 1062.32 355.70
  C 1061.42 356.86 1061.08 358.27 1060.39 359.33
  Q 1055.61 366.59 1050.72 373.79
  C 1049.68 375.33 1047.14 378.28 1045.82 380.87
  Q 1044.48 383.50 1043.89 384.42
  Q 1031.16 404.33 1017.46 423.59
  Q 1017.43 423.63 1015.93 425.33
  C 1015.00 426.39 1014.86 427.48 1014.19 428.43
  C 983.93 471.54 949.76 519.41 924.76 559.02
  Q 922.37 562.82 924.56 567.57
  Q 924.76 568.01 925.18 568.25
  C 930.90 571.62 935.32 571.40 941.61 572.01
  C 946.67 572.50 1010.84 579.35 1007.75 584.96
  Z"
/>
<path fill="#9c3016" d="
  M 802.77 335.12
  Q 798.50 326.84 792.45 320.78
  C 789.79 318.11 777.24 313.76 775.26 313.46
  Q 761.25 311.37 747.24 313.46
  C 725.84 316.66 701.91 322.64 678.42 329.87
  C 633.90 343.57 587.90 360.63 542.06 379.21
  C 540.72 379.75 537.41 380.35 535.39 381.57
  Q 533.69 382.61 532.89 382.93
  C 510.30 392.13 486.95 400.87 465.26 412.03
  C 461.50 413.97 456.43 419.06 462.04 422.16
  Q 462.47 422.40 462.50 422.89
  Q 462.57 423.82 462.25 424.71
  Q 454.37 423.99 442.08 421.61
  Q 434.02 420.05 433.33 412.22
  Q 433.28 411.66 433.66 411.25
  Q 437.04 407.59 441.80 405.04
  Q 456.09 397.39 468.74 391.97
  Q 531.23 365.16 594.89 341.25
  C 633.62 326.71 673.39 313.64 713.67 304.10
  C 737.68 298.41 767.81 292.44 789.96 307.07
  Q 804.78 316.86 802.77 335.12
  Z"
/>
<path fill="#9c3016" d="
  M 472.57 428.43
  Q 479.43 432.01 477.41 439.99
  C 475.72 446.68 469.45 450.97 463.37 454.25
  C 452.83 459.92 442.22 465.44 431.65 471.00
  Q 390.62 492.61 349.46 513.98
  Q 333.54 522.24 321.69 524.92
  Q 311.81 527.14 299.80 522.94
  Q 298.60 522.52 296.00 519.83
  Q 295.62 519.44 295.49 518.92
  Q 294.78 516.22 292.02 515.31
  Q 291.59 515.18 291.34 514.81
  C 290.41 513.50 288.07 513.95 286.82 512.62
  Q 281.10 506.57 279.52 497.32
  C 279.39 496.56 279.25 495.49 280.46 496.00
  C 285.04 507.51 296.21 513.23 308.10 512.32
  Q 313.26 511.92 321.60 508.54
  Q 333.69 503.64 348.58 495.84
  Q 404.03 466.80 459.42 437.65
  C 463.96 435.25 469.52 432.71 472.57 428.43
  Z"
/>
<path fill="#9c3016" d="
  M 692.00 898.96
  C 698.15 902.07 705.45 901.27 711.65 899.55
  Q 743.56 890.71 769.75 870.51
  C 776.31 865.45 783.66 856.96 782.00 848.45
  Q 781.95 848.20 779.10 839.93
  C 775.56 829.69 772.16 820.89 772.91 810.72
  Q 773.89 797.43 778.73 784.95
  C 787.91 761.27 799.01 738.73 816.27 705.08
  Q 816.51 704.61 817.04 704.61
  Q 866.82 703.79 916.30 709.27
  Q 916.83 709.33 917.15 708.90
  L 1008.29 585.50
  L 1009.22 584.94
  Q 1009.65 584.68 1010.06 584.96
  C 1022.54 593.47 1015.05 606.96 1007.95 616.21
  Q 1005.90 618.89 1003.96 621.65
  C 1002.84 623.24 1000.82 624.83 999.85 627.03
  Q 999.65 627.47 999.28 627.78
  C 997.78 628.98 997.15 630.93 996.25 632.13
  Q 987.28 644.12 978.43 656.20
  C 977.51 657.45 975.03 659.68 973.91 661.73
  Q 972.92 663.55 972.44 664.20
  Q 955.95 686.79 939.22 709.22
  Q 932.23 718.58 921.84 722.32
  Q 921.63 722.39 921.56 722.19
  Q 921.52 722.06 921.48 721.94
  Q 921.44 721.80 921.29 721.82
  Q 913.90 722.99 909.94 722.66
  Q 881.74 720.31 853.44 719.54
  C 842.97 719.26 829.96 717.69 824.52 728.77
  Q 824.30 729.22 823.88 729.49
  C 821.95 730.73 822.10 732.68 821.44 734.01
  C 811.31 754.46 800.50 775.43 793.19 796.18
  Q 790.06 805.07 789.06 815.25
  C 787.75 828.66 793.81 839.70 795.45 852.59
  C 797.45 868.31 788.16 879.28 776.32 887.86
  Q 760.27 899.48 741.97 907.29
  C 730.73 912.09 718.46 916.29 707.02 915.07
  C 701.06 914.44 702.32 911.58 699.45 908.07
  Q 697.43 905.60 695.38 903.19
  Q 695.06 902.82 694.60 902.65
  C 693.33 902.18 689.60 900.75 690.36 899.32
  Q 690.57 898.92 691.02 898.94
  L 692.00 898.96
  Z"
/>
<path fill="#9c3016" d="
  M 729.79 731.50
  Q 726.58 727.76 723.70 727.33
  Q 717.73 726.46 706.97 727.75
  Q 687.85 730.05 668.75 732.50
  Q 667.64 732.64 667.21 733.18
  Q 666.91 733.56 666.43 733.62
  Q 617.94 739.79 581.51 746.01
  C 570.24 747.93 563.59 755.72 557.46 764.66
  Q 557.40 764.74 557.50 764.76
  Q 557.62 764.79 557.74 764.83
  Q 557.81 764.86 557.77 764.92
  Q 539.63 789.61 522.12 814.76
  Q 521.83 815.17 521.78 815.67
  Q 521.75 816.00 521.54 816.30
  Q 510.71 832.03 500.18 847.95
  C 499.27 849.31 497.84 850.53 497.03 851.75
  Q 487.24 866.47 477.68 881.33
  Q 477.53 881.56 476.24 884.36
  C 475.55 885.85 474.17 886.82 473.39 888.01
  C 461.70 905.83 447.94 928.26 422.59 922.73
  C 419.22 922.00 415.54 917.45 412.29 915.43
  Q 411.02 914.64 409.85 913.71
  C 405.19 910.01 396.43 910.35 398.05 901.86
  Q 398.19 901.13 397.78 901.74
  L 396.53 903.58
  Q 396.20 904.07 396.46 904.61
  Q 398.74 909.29 403.12 912.05
  Q 403.58 912.34 404.12 912.32
  Q 407.78 912.21 410.11 914.90
  Q 410.38 915.21 409.99 915.09
  C 406.72 914.06 403.42 913.39 400.89 911.10
  C 398.17 908.64 394.90 906.04 395.67 901.80
  Q 395.77 901.27 395.50 900.81
  Q 386.18 884.97 390.86 866.78
  Q 391.53 864.15 391.75 866.74
  Q 391.77 866.94 391.92 867.05
  Q 392.28 867.30 392.32 866.87
  L 392.79 862.50
  C 392.46 870.25 391.88 881.79 395.39 888.88
  C 403.63 905.56 427.18 917.15 441.38 899.37
  Q 450.76 887.61 458.88 874.90
  Q 505.47 801.92 557.67 732.84
  Q 557.97 732.44 558.47 732.35
  Q 630.88 720.03 703.92 712.05
  Q 722.80 709.99 741.75 708.65
  Q 742.33 708.61 742.05 709.12
  L 729.79 731.50
  Z"
/>
<path fill="#9c3016" d="
  M 375.21 723.00
  C 391.47 752.63 438.33 748.85 466.64 746.74
  Q 467.22 746.69 466.89 747.17
  L 452.54 768.25
  C 450.94 762.98 444.01 762.76 439.41 762.75
  Q 417.65 762.70 399.30 754.50
  C 397.51 753.70 395.16 751.59 392.82 750.35
  Q 385.26 746.33 379.70 738.29
  Q 374.55 730.86 375.21 723.00
  Z"
/>
</svg>
